<svg xmlns="http://www.w3.org/2000/svg" width="27.683" height="27" viewBox="0 0 27.683 27">
  <g id="Component_10_2" data-name="Component 10 – 2" transform="translate(0)">
    <path id="Path_668" data-name="Path 668" d="M304.063,334.431a13.843,13.843,0,0,0-4.376,26.976c.692.128.946-.3.946-.666,0-.33-.013-1.42-.019-2.577-3.851.838-4.663-1.633-4.663-1.633a3.666,3.666,0,0,0-1.537-2.025c-1.256-.859.095-.841.095-.841a2.909,2.909,0,0,1,2.122,1.427,2.947,2.947,0,0,0,4.028,1.151,2.948,2.948,0,0,1,.879-1.851c-3.074-.35-6.306-1.537-6.306-6.84a5.357,5.357,0,0,1,1.426-3.715,4.974,4.974,0,0,1,.134-3.663s1.162-.372,3.807,1.419a13.123,13.123,0,0,1,6.932,0c2.642-1.791,3.8-1.419,3.8-1.419a4.968,4.968,0,0,1,.136,3.663,5.346,5.346,0,0,1,1.425,3.715c0,5.316-3.238,6.487-6.32,6.829a3.309,3.309,0,0,1,.939,2.563c0,1.852-.016,3.343-.016,3.8,0,.369.249.8.951.664a13.844,13.844,0,0,0-4.384-26.974Z" transform="translate(-290.221 -334.431)" fill="#73c4b7" fill-rule="evenodd"/>
    <path id="Path_669" data-name="Path 669" d="M311.846,420.345c-.03.069-.139.09-.237.042s-.157-.139-.124-.208.138-.091.238-.043.158.14.123.209Zm-.17-.126" transform="translate(-306.604 -400.471)" fill="#73c4b7"/>
    <path id="Path_670" data-name="Path 670" d="M314.315,422.572c-.066.061-.2.033-.283-.064a.212.212,0,0,1-.041-.288c.068-.061.193-.033.284.064s.108.226.039.288Zm-.132-.142" transform="translate(-308.512 -402.073)" fill="#73c4b7"/>
    <path id="Path_671" data-name="Path 671" d="M316.667,425.748c-.085.059-.223,0-.309-.119s-.085-.271,0-.33.223-.006.309.116.085.273,0,.333Zm0,0" transform="translate(-310.318 -404.452)" fill="#73c4b7"/>
    <path id="Path_672" data-name="Path 672" d="M319.585,429.165c-.076.084-.237.061-.356-.053a.266.266,0,0,1-.079-.354c.077-.084.239-.06.358.053s.157.271.076.354Zm0,0" transform="translate(-312.488 -407.098)" fill="#73c4b7"/>
    <path id="Path_673" data-name="Path 673" d="M323.735,431.635c-.033.108-.189.157-.346.111s-.259-.174-.227-.284.189-.16.347-.111.259.173.226.284Zm0,0" transform="translate(-315.607 -409.121)" fill="#73c4b7"/>
    <path id="Path_674" data-name="Path 674" d="M328.624,432.334c0,.114-.129.209-.294.211s-.3-.089-.3-.2.13-.209.3-.212.3.089.3.2Zm0,0" transform="translate(-319.363 -409.737)" fill="#73c4b7"/>
    <path id="Path_675" data-name="Path 675" d="M333.238,431.7c.02.111-.095.226-.258.256s-.309-.039-.33-.15.1-.229.257-.258.31.039.331.152Zm0,0" transform="translate(-322.923 -409.282)" fill="#73c4b7"/>
  </g>
</svg>
