<?xml version="1.0" encoding="UTF-8"?>
<svg width="500" height="500" version="1.1" viewBox="0 0 500.00001 500.00001" xmlns="http://www.w3.org/2000/svg">
 <g transform="matrix(7.0274 0 0 7.0274 74.315 -6969.7)">
  <circle cx="25" cy="1027.4" r="23.151" fill="none" stroke="#555" stroke-width="2.0801"/>
  <path transform="translate(0 1002.4)" d="m24.514 15.938a1.1583 1.1583 0 0 0 -0.67969 2.1152l0.70508 0.49219c0.89074-0.06793 1.5928-0.80284 1.5938-1.7109v-2e-3l-0.9707-0.67773a1.1583 1.1583 0 0 0 -0.64844 -0.21675zm1.8477 1.0547c-0.07089 0.86712-0.69702 1.5756-1.5273 1.7598l8.6113 6.0234c0.2216-0.77228 0.67724-1.4377 1.293-1.9219l-8.377-5.8613zm8.8262 6.1758c-0.64122 0.45527-1.107 1.1345-1.2852 1.9277l1.8516 1.2949a1.1585 1.1585 0 0 0 1.3281 -1.8984l-1.8945-1.3242z" color="#000000" color-rendering="auto" fill="#555" fill-rule="evenodd" image-rendering="auto" shape-rendering="auto" solid-color="#000000" style="block-progression:tb;isolation:auto;mix-blend-mode:normal;text-decoration-color:#000000;text-decoration-line:none;text-decoration-style:solid;text-indent:0;text-transform:none;white-space:normal"/>
  <path transform="translate(0 1002.4)" d="m36.729 24.354a1.7375 1.7375 0 0 0 -1.1973 0.51953l-1.6387 1.6211c0.26272 1.2282 1.2181 2.1918 2.4395 2.4727l1.6426-1.623a1.7375 1.7375 0 0 0 -1.2461 -2.9902zm-3.2617 2.5605-10.867 10.74h4.9434l8.3613-8.2656c-1.1672-0.37815-2.076-1.3001-2.4375-2.4746zm-11.178 11.088a1.7381 1.7381 0 0 0 2.6562 2.2207l2.2461-2.2207h-4.9023z" color="#000000" color-rendering="auto" fill="#555" fill-rule="evenodd" image-rendering="auto" shape-rendering="auto" solid-color="#000000" style="block-progression:tb;isolation:auto;mix-blend-mode:normal;text-decoration-color:#000000;text-decoration-line:none;text-decoration-style:solid;text-indent:0;text-transform:none;white-space:normal"/>
  <rect x="15.748" y="1040.3" width="16.86" height="3.5274" ry="1.7637" fill="#555"/>
  <path transform="translate(0 1002.4)" d="m37.061 22.326a3.4847 3.4847 0 0 0 -3.4844 3.4844 3.4847 3.4847 0 0 0 3.4844 3.4863 3.4847 3.4847 0 0 0 3.4863 -3.4863 3.4847 3.4847 0 0 0 -3.4863 -3.4844zm0 1.1543c1.2858 0 2.332 1.0463 2.332 2.332 3e-6 1.2858-1.0463 2.332-2.332 2.332-1.2858 0-2.3301-1.0462-2.3301-2.332-3e-6 -1.2857 1.0443-2.332 2.3301-2.332zm0 0.34766c-1.098 0-1.9844 0.88638-1.9844 1.9844-3e-6 1.098 0.88638 1.9844 1.9844 1.9844s1.9844-0.88638 1.9844-1.9844c2e-6 -1.098-0.88638-1.9844-1.9844-1.9844z" fill="#555"/>
  <circle cx="37.061" cy="1028.2" r="2.1581" fill="#555" stroke="#fff" stroke-linecap="round" stroke-linejoin="round" stroke-width=".34746"/>
  <path transform="translate(0 1002.4)" d="m19.426 10.229-4.2402 1.3711a0.5884 0.5884 0 1 0 0.36133 1.1191l3.5566-1.1504 3.8965 3.8965c0.28844-0.2971 0.66841-0.4977 1.0957-0.56641l-4.6699-4.6699zm4.8906 4.8906c-0.44982 0.024-0.85165 0.21463-1.1445 0.51758l0.03906 0.03906-0.12305 0.64648-0.02734 0.10352-0.26758 0.99609c0.16423 0.45282 0.50713 0.81879 0.94922 1.0039l0.45508-1.6973 0.03906-0.14453 0.24609-1.2988-0.16602-0.16602zm-10.031 0.95312a0.5884 0.5884 0 0 0 -0.41602 0.99414l2.9141 3.2949 6.7051-1.7969c-0.40037-0.21413-0.72144-0.55594-0.89648-0.97852l-5.4102 1.4492-2.4316-2.748a0.5884 0.5884 0 0 0 -0.46484 -0.21484z" color="#000000" color-rendering="auto" fill="#555" fill-rule="evenodd" image-rendering="auto" shape-rendering="auto" solid-color="#000000" style="block-progression:tb;isolation:auto;mix-blend-mode:normal;text-decoration-color:#000000;text-decoration-line:none;text-decoration-style:solid;text-indent:0;text-transform:none;white-space:normal"/>
  <circle cx="24.409" cy="1019.2" r="1.7612" fill="#555"/>
 </g>
</svg>
