<svg xmlns="http://www.w3.org/2000/svg" width="45.993" height="46.778" viewBox="0 0 45.993 46.778">
  <g id="write" transform="translate(-3.834)">
    <g id="Group_45" data-name="Group 45" transform="translate(3.834)">
      <g id="Group_44" data-name="Group 44" transform="translate(0)">
        <path id="Path_34" data-name="Path 34" d="M31.482,35.725a4.506,4.506,0,0,1-2.237,1.22l-8.6,1.864a4.509,4.509,0,0,1-4.781-2.017H10.6a1.5,1.5,0,1,1,0-3.009h4.617c.016-.114.034-.228.059-.341l.91-4.2H10.6a1.5,1.5,0,1,1,0-3.009h6.238l.3-1.393a4.5,4.5,0,0,1,1.22-2.236l.913-.913H10.6a1.5,1.5,0,1,1,0-3.009H22.28l4.543-4.543H10.6a1.5,1.5,0,1,1,0-3.009H29.832l7.162-7.162a9.438,9.438,0,0,1,.874-.769A3.3,3.3,0,0,0,34.574,0H7.131a3.3,3.3,0,0,0-3.3,3.3V43.481a3.3,3.3,0,0,0,3.3,3.3H34.574a3.3,3.3,0,0,0,3.3-3.3V29.335Z" transform="translate(-3.834)" fill="#73c4b7"/>
        <path id="Path_35" data-name="Path 35" d="M173.9,43.436a6.271,6.271,0,0,0-8.868,0L146.392,62.073a1.5,1.5,0,0,0-.407.745l-1.864,8.6a1.5,1.5,0,0,0,1.789,1.789l8.6-1.864a1.5,1.5,0,0,0,.745-.407c20.316-20.316,18.932-18.86,19.424-19.594a6.276,6.276,0,0,0-.787-7.911Zm-26.34,26.34,1.164-5.373,4.209,4.209Z" transform="translate(-129.741 -37.344)" fill="#73c4b7"/>
      </g>
    </g>
  </g>
</svg>
