<svg id="download" xmlns="http://www.w3.org/2000/svg" width="24" height="20" viewBox="0 0 24 20">
  <path id="Path_2" data-name="Path 2" d="M14.25,14.25H13V11a1,1,0,0,0-2,0v3.25H9.75a.751.751,0,0,0-.53,1.28l2.25,2.25a.748.748,0,0,0,1.06,0l2.25-2.25a.751.751,0,0,0-.53-1.28Z" transform="translate(0 -2)" fill="#fff"/>
  <path id="Path_3" data-name="Path 3" d="M15,22H9a2,2,0,0,1-2-2V19a1,1,0,0,1,2,0v1h6V19a1,1,0,0,1,2,0v1A2,2,0,0,1,15,22Z" transform="translate(0 -2)" fill="#fff"/>
  <path id="Path_4" data-name="Path 4" d="M21,20.25H19.5a1,1,0,0,1,0-2H21a1,1,0,0,0,1-1V7a1,1,0,0,0-1-1H10.25a1,1,0,0,1-.707-.293L7.836,4H3A1,1,0,0,0,2,5V17.25a1,1,0,0,0,1,1H4.5a1,1,0,0,1,0,2H3a3,3,0,0,1-3-3V5A3,3,0,0,1,3,2H8.25a1,1,0,0,1,.707.293L10.664,4H21a3,3,0,0,1,3,3V17.25A3,3,0,0,1,21,20.25Z" transform="translate(0 -2)" fill="#fff"/>
</svg>
