<svg xmlns="http://www.w3.org/2000/svg" width="46" height="46" viewBox="0 0 46 46">
  <g id="forum" transform="translate(434.742 -247.258)">
    <g id="Group_47" data-name="Group 47" transform="translate(-434.742 247.258)">
      <g id="Group_46" data-name="Group 46">
        <circle id="Ellipse_7" data-name="Ellipse 7" cx="1.639" cy="1.639" r="1.639" transform="translate(5.737 22.182)" fill="#73c4b7"/>
        <path id="Path_36" data-name="Path 36" d="M173.4,124.594v.82h23.767v-6.554l-23.767,0v.82a.819.819,0,0,1-.328.655l-2.4,1.8,2.4,1.8A.819.819,0,0,1,173.4,124.594Z" transform="translate(-155.262 -108.174)" fill="#73c4b7"/>
        <path id="Path_37" data-name="Path 37" d="M49.729,301.563a2.95,2.95,0,0,0-3.206,2.459h6.411A2.951,2.951,0,0,0,49.729,301.563Z" transform="translate(-42.353 -274.452)" fill="#73c4b7"/>
        <path id="Path_38" data-name="Path 38" d="M397.157,438.706a2.95,2.95,0,0,0-3.206,2.459h6.411A2.951,2.951,0,0,0,397.157,438.706Z" transform="translate(-358.533 -399.262)" fill="#73c4b7"/>
        <path id="Path_39" data-name="Path 39" d="M173.4,261.737v.82h23.767V256L173.4,256v.82a.819.819,0,0,1-.328.655l-2.4,1.8,2.4,1.8A.819.819,0,0,1,173.4,261.737Z" transform="translate(-155.262 -232.991)" fill="#73c4b7"/>
        <circle id="Ellipse_8" data-name="Ellipse 8" cx="1.639" cy="1.639" r="1.639" transform="translate(5.737 9.859)" fill="#73c4b7"/>
        <path id="Path_40" data-name="Path 40" d="M49.728,164.42a2.951,2.951,0,0,0-3.206,2.459h6.411A2.951,2.951,0,0,0,49.728,164.42Z" transform="translate(-42.352 -149.632)" fill="#73c4b7"/>
        <path id="Path_41" data-name="Path 41" d="M0,111.765a.822.822,0,0,0,.821.822H45.179a.822.822,0,0,0,.821-.822V73.143H0Zm32.529-5.917-2.957,2.219v.411a1.645,1.645,0,0,1-1.643,1.643H4.107a1.645,1.645,0,0,1-1.643-1.643V101.9a1.645,1.645,0,0,1,1.643-1.644H27.929a1.645,1.645,0,0,1,1.643,1.644v.411l2.957,2.219a.822.822,0,0,1,0,1.314ZM43.536,109.3a.821.821,0,0,1-.821.822H34.5a.821.821,0,0,1-.821-.822,4.657,4.657,0,0,1,2.509-4.369,3.286,3.286,0,1,1,4.84,0A4.657,4.657,0,0,1,43.536,109.3ZM13.471,79.881l2.957-2.219v-.411a1.645,1.645,0,0,1,1.643-1.644H41.893a1.645,1.645,0,0,1,1.643,1.644v6.574a1.645,1.645,0,0,1-1.643,1.644H18.071a1.645,1.645,0,0,1-1.643-1.644v-.411L13.471,81.2a.822.822,0,0,1,0-1.314Zm0,12.326,2.957-2.219v-.411a1.645,1.645,0,0,1,1.643-1.644H41.893a1.645,1.645,0,0,1,1.643,1.644v6.574A1.645,1.645,0,0,1,41.893,97.8H18.071a1.645,1.645,0,0,1-1.643-1.644v-.411l-2.957-2.219a.822.822,0,0,1,0-1.314Zm-8.5-11.929a3.286,3.286,0,1,1,4.84,0,4.657,4.657,0,0,1,2.509,4.369.821.821,0,0,1-.821.822H3.286a.821.821,0,0,1-.821-.822A4.657,4.657,0,0,1,4.973,80.279Zm0,12.326a3.286,3.286,0,1,1,4.84,0,4.657,4.657,0,0,1,2.509,4.369.821.821,0,0,1-.821.822H3.286a.821.821,0,0,1-.821-.822A4.657,4.657,0,0,1,4.973,92.6Z" transform="translate(0 -66.587)" fill="#73c4b7"/>
        <path id="Path_42" data-name="Path 42" d="M69.481,393.963v-.82H45.714V399.7H69.481v-.82a.819.819,0,0,1,.328-.656l2.4-1.8-2.4-1.8A.819.819,0,0,1,69.481,393.963Z" transform="translate(-41.616 -357.797)" fill="#73c4b7"/>
        <path id="Path_43" data-name="Path 43" d="M45.179,0H.821A.821.821,0,0,0,0,.82v4.1H46V.82A.821.821,0,0,0,45.179,0ZM4.929,3.278H3.286a.82.82,0,1,1,0-1.639H4.929a.82.82,0,1,1,0,1.639Zm29.571,0h-23a.82.82,0,1,1,0-1.639h23a.82.82,0,1,1,0,1.639Zm8.214,0H41.071a.82.82,0,1,1,0-1.639h1.643a.82.82,0,1,1,0,1.639Z" fill="#73c4b7"/>
        <circle id="Ellipse_9" data-name="Ellipse 9" cx="1.639" cy="1.639" r="1.639" transform="translate(36.985 34.506)" fill="#73c4b7"/>
      </g>
    </g>
  </g>
</svg>
