<svg xmlns="http://www.w3.org/2000/svg" width="15.678" height="17" viewBox="0 0 15.678 17">
  <path id="manipulator" d="M7,10.527a2.277,2.277,0,0,1,3.769-1.716l.009.009a2.206,2.206,0,0,1,.2.2l.01.011a2.27,2.27,0,0,1,.558,1.376v0c0,.039.006.078.006.117a2.16,2.16,0,0,1-.133.759c-.01.027-.019.054-.03.081a2.314,2.314,0,0,1-.121.257c-.017.03-.036.061-.054.089q-.053.086-.113.167c-.022.03-.044.061-.068.091a2.28,2.28,0,0,1-.177.19c-.029.028-.058.054-.088.08a2.336,2.336,0,0,1-.189.149l-.07.047a2.341,2.341,0,0,1-.236.133l-.061.03a2.257,2.257,0,0,1-.3.113l-.018,0a2.258,2.258,0,0,1-.344.069h0A2.265,2.265,0,0,1,7,10.527Zm9.6,9.237,1.327.531V21H12.161v-.705l1.327-.531a.3.3,0,0,0,.191-.282v-.345a2.9,2.9,0,0,0,.317.145l.016.006a2.841,2.841,0,0,0,2.067,0l.016-.006a2.9,2.9,0,0,0,.317-.145v.345A.3.3,0,0,0,16.6,19.764Zm.72-3.166a2.272,2.272,0,0,1-.812,1.74c-.032.027-.066.052-.1.076s-.045.035-.068.051-.07.046-.1.067-.047.03-.071.043-.074.04-.112.059l-.073.035c-.039.018-.078.034-.117.049l-.078.028c-.039.014-.078.026-.118.038l-.091.023c-.037.009-.074.018-.111.025s-.078.012-.117.018-.061.009-.091.012c-.071.007-.143.011-.216.011s-.145,0-.216-.011c-.03,0-.061-.008-.091-.012s-.078-.011-.117-.018-.074-.016-.111-.025l-.091-.023c-.04-.012-.079-.024-.118-.038l-.078-.028c-.04-.015-.079-.03-.117-.049l-.073-.035c-.038-.019-.075-.038-.112-.059l-.071-.043c-.035-.022-.071-.043-.1-.067s-.045-.034-.068-.051-.066-.049-.1-.076A2.252,2.252,0,0,1,12.8,16.2h0a2.319,2.319,0,0,1,.089-.342l.01-.026a2.271,2.271,0,0,1,.3-.571c.016-.022.032-.044.049-.066a2.246,2.246,0,0,1,.193-.216c.017-.017.036-.033.055-.05a2.249,2.249,0,0,1,.2-.164c.016-.012.03-.025.048-.036a2.261,2.261,0,0,1,.271-.16l.039-.019a2.271,2.271,0,0,1,.668-.2h0A2.259,2.259,0,0,1,17.321,16.6Zm-5.377-4.972L14.1,13.874l-.036.014c-.074.027-.146.056-.217.088l-.091.044q-.081.04-.159.086c-.039.023-.078.046-.117.071s-.077.053-.116.08-.089.064-.131.1-.055.047-.082.071c-.047.041-.094.082-.138.126-.018.018-.035.038-.053.056a2.869,2.869,0,0,0-.37.481c-.03.051-.063.1-.091.155-.014.027-.026.055-.04.083-.032.066-.064.133-.091.2,0,.007-.007.013-.009.021l-2.181-2.284c.017-.005.033-.013.05-.019.071-.025.141-.051.209-.081.041-.018.08-.038.12-.058s.089-.044.132-.069.1-.058.147-.089c.03-.019.059-.038.088-.058.055-.038.107-.078.159-.119.019-.015.038-.03.057-.047.056-.048.111-.1.163-.148l.034-.035c.056-.057.111-.116.162-.178l.011-.015a2.864,2.864,0,0,0,.419-.69s0-.007.005-.011S11.941,11.633,11.944,11.626Zm8.262,1.457.828.828L19.75,13.75V13.1c.018,0,.035,0,.053,0,.033,0,.066.005.1.005l.043,0c.025,0,.051,0,.077,0,.055,0,.109-.009.163-.017h.021Zm2.472-.512-.883-.883c.005-.018.008-.036.013-.055.011-.042.022-.083.03-.126s.009-.057.013-.086.011-.074.015-.111c0-.008,0-.016,0-.024h.648Zm-1.41-1.437a1.4,1.4,0,0,1-1.058,1.328c-.029.007-.057.011-.085.016a1.353,1.353,0,0,1-.19.019l-.045,0a1.369,1.369,0,0,1-.23-.023l-.075-.016a1.32,1.32,0,0,1-1.03-1.522c.006-.041.012-.082.022-.121a1.267,1.267,0,0,1,.043-.139c.012-.032.022-.066.036-.1a1.369,1.369,0,0,1,.089-.163c.011-.017.019-.036.03-.052a1.372,1.372,0,0,1,.356-.356c.016-.012.035-.02.052-.03a1.369,1.369,0,0,1,.163-.089c.03-.014.065-.024.1-.036a1.267,1.267,0,0,1,.139-.043c.04-.01.081-.016.121-.022a1.332,1.332,0,0,1,1.563,1.346ZM16.761,6.9l2.4,2.4-.015.007c-.024.01-.048.022-.071.033s-.075.034-.112.054l-.012.007a1.968,1.968,0,0,0-.778.778l-.007.012c-.019.036-.036.074-.054.112s-.023.047-.033.071c0,0,0,.01-.007.015l-2.4-2.4s.005,0,.009-.005A2.406,2.406,0,0,0,16,7.8l.028-.021a2.45,2.45,0,0,0,.519-.519l.021-.028a2.4,2.4,0,0,0,.191-.315ZM14.589,4a1.821,1.821,0,0,1,1.579,2.728l0,0a1.852,1.852,0,0,1-.124.185l-.013.018a1.838,1.838,0,0,1-.324.324l-.018.013A1.852,1.852,0,0,1,15.5,7.4l0,0a1.848,1.848,0,0,1-.907.245,1.8,1.8,0,0,1-.237-.017h0a1.8,1.8,0,0,1-.566-.172l-.006,0a1.786,1.786,0,0,1-.247-.149l0,0a1.831,1.831,0,0,1-.408-.405l0-.005a1.812,1.812,0,0,1-.329-.816v0a1.86,1.86,0,0,1-.019-.249A1.823,1.823,0,0,1,14.589,4ZM12.328,6.7l0,0a2.44,2.44,0,0,0,1.154,1.275l.017.008a2.231,2.231,0,0,0,.212.094l.009,0L12.054,9.759c-.022-.078-.047-.155-.075-.23l-.008-.022c-.027-.07-.056-.139-.088-.207l-.018-.037c-.03-.063-.064-.126-.1-.186-.009-.016-.019-.032-.03-.048-.035-.057-.071-.113-.109-.167-.013-.018-.027-.036-.04-.053-.039-.052-.077-.1-.119-.152-.014-.017-.03-.033-.045-.049-.044-.049-.088-.1-.135-.143l-.028-.025a2.941,2.941,0,0,0-.372-.3Z" transform="translate(-7 -4)" fill="#15253e"/>
</svg>
