<svg xmlns="http://www.w3.org/2000/svg" width="46.13" height="44.598" viewBox="0 0 46.13 44.598">
  <g id="question-mark" transform="translate(0 -8.5)">
    <path id="Path_32" data-name="Path 32" d="M209.471,8.5H182.351A1.351,1.351,0,0,0,181,9.851V32.826a1.351,1.351,0,0,0,1.351,1.351h24.416a1.352,1.352,0,0,1,1.351,1.351,1.351,1.351,0,1,0,2.7,0V9.851A1.351,1.351,0,0,0,209.471,8.5Zm-13.6,20.272a1.351,1.351,0,1,1,1.351-1.351A1.352,1.352,0,0,1,195.866,28.772Zm2.029-7.3a1.361,1.361,0,0,0-.677,1.172,1.351,1.351,0,1,1-2.7,0,4.068,4.068,0,0,1,2.026-3.511,1.352,1.352,0,1,0-2.026-1.172,1.351,1.351,0,1,1-2.7,0,4.054,4.054,0,1,1,6.083,3.511Z" transform="translate(-164.692)" fill="#73c4b7"/>
    <path id="Path_33" data-name="Path 33" d="M1.351,230.529A1.351,1.351,0,0,0,2.7,229.178a1.352,1.352,0,0,1,1.351-1.351H28.471a1.351,1.351,0,0,0,1.351-1.351V214.312H17.659a4.059,4.059,0,0,1-4.054-4.054V203.5H1.351A1.351,1.351,0,0,0,0,204.851v24.326A1.351,1.351,0,0,0,1.351,230.529Zm5.406-18.92H9.55a1.351,1.351,0,0,1,0,2.7H6.757a1.351,1.351,0,0,1,0-2.7Zm0,5.406H23.065a1.351,1.351,0,1,1,0,2.7H6.757a1.351,1.351,0,1,1,0-2.7Z" transform="translate(0 -177.431)" fill="#73c4b7"/>
  </g>
</svg>
