<?xml version="1.0" encoding="UTF-8"?>
<svg width="800" height="186.53" enable-background="new 0 0 472.951 465.479" overflow="visible" version="1.1" viewBox="0 0 799.99984 186.53152" xmlns="http://www.w3.org/2000/svg">
 <path d="m374.14 0v39.659h-1.0551v32.919h-1.8782v1.2396c-0.66401-0.0868-1.3303-0.16923-1.9959-0.25169v-3.2355h-4.3331v-25.633h1.4536l1.1254-0.91945v-5.6741h-1.4308v-5.8275l-0.71539-1.6366h-3.2208l-2.1478 2.352v5.1121h-0.92118v4.4474l1.893 2.1461h1.545v25.633h-4.5454v2.0677l-2.2866 0.0308h-19v-38.901h2.0971v-3.6977h-4.405v3.6977h0.0615v38.901h-18.095c-0.84794-0.79262-2.862-1.3556-4.4474-1.3556-1.5849 0-2.2683 0.56308-2.5022 1.3556h-3.3221c0.0615-0.12062 0.0997-0.2437 0.0997-0.37047 0-1.1717-2.7947-2.1217-4.8557-2.1217-2.0611 0-2.6083 0.94997-2.6083 2.1217 0 0.12677 0.0123 0.24985 0.0246 0.37047h-2.8387c-5.7028 1.5684-10.2 6.1043-12.13 12.243-0.93391 5.0101-4.055 10.004-7.2403 13.545l-1.8391-0.44061-199.01-0.24677-5e-3 2e-3c-34.067 2.3035-59.935 13.221-70.776 31.398-0.0714 0.0695-0.144 0.12615-0.21538 0.19323h0.0997c-2.1625 3.6722-3.729 7.6313-4.6123 11.882-1.0545 10.109 5.5265 18.58 16.063 25.288 0.12739 0.0806 0.25539 0.16185 0.38401 0.24185 0.7768 0.48677 1.5721 0.96597 2.3895 1.434 0.14462 0.0831 0.29046 0.16431 0.43631 0.24678 0.83034 0.46831 1.6782 0.92659 2.5463 1.3753 0.1317 0.0689 0.26462 0.13477 0.39693 0.20246 0.88776 0.45292 1.7912 0.89674 2.7145 1.3296 0.13046 0.0615 0.26215 0.12246 0.39385 0.18277 0.92179 0.42708 1.8574 0.84406 2.8109 1.2511 0.16246 0.0695 0.32677 0.13662 0.48985 0.20554 0.94376 0.39693 1.8986 0.78518 2.8697 1.1629 0.16184 0.0615 0.32554 0.12554 0.48862 0.18769 0.98979 0.38031 1.9891 0.75078 3.0036 1.1107 0.13477 0.0431 0.27016 0.0948 0.40493 0.14215 1.0632 0.37293 2.1361 0.73693 3.2224 1.0877 0.0665 0.0246 0.13292 0.0369 0.19939 0.0615 1.1391 0.36616 2.2872 0.72228 3.4478 1.0633 0.0492 0.0123 0.0991 0.0308 0.14831 0.0431 1.1714 0.34338 2.3502 0.67459 3.5393 0.99305 0.0554 0.0123 0.10892 0.0308 0.16308 0.0431 1.1978 0.31938 2.4012 0.62616 3.6128 0.91957 0.0185 4e-3 0.0308 6e-3 0.0492 6e-3 1.2192 0.29477 2.4428 0.57785 3.6716 0.84597 0.0966 0.0246 0.19385 0.0369 0.29047 0.0615 2.4412 0.52923 4.8947 1.0088 7.3481 1.434 0.0855 0.0123 0.17107 0.0308 0.25661 0.0431 10.09 1.7342 20.137 2.5902 29.007 2.5054h478.17c5e-3 -4.9e-4 6e-3 -8e-4 0.0123-2e-3h0.0185c53.225-5.7071 106.58-14.861 159.14-25.014 7.22 5.1335 11.133 18.394 15.89 27.075h19.978l-0.0917-29.518 3.2812-3.1v-2.1772c0.20431-0.0369 0.41047-0.0812 0.61539-0.12247l12.56 0.0554v-2e-3h0.0308l5e-3 -0.96524h4.0342v-1.3181h0.37723a2.3759 6.3069 0 0 0 -0.496 3.8447 2.3759 6.3069 0 0 0 2.3748 6.3077 2.3759 6.3069 0 0 0 0.54708 -0.17601 2.4619 7.6698 0 0 0 2.3486 5.3964 2.4619 7.6698 0 0 0 2.4613 -7.6699 2.4619 7.6698 0 0 0 -1.4241 -6.9463h4.3935c2.2832-0.72388 4.3109-1.9594 5.3163-3.8595-1.0735-1.3886-3.1688-3.084-5.367-3.8594h-4.1746a2.4619 7.6698 0 0 0 1.2559 -6.6768 2.4619 7.6698 0 0 0 -2.4613 -7.6698 2.4619 7.6698 0 0 0 -2.2147 4.3412 2.3759 6.3069 0 0 0 -0.68074 -0.26646 2.3759 6.3069 0 0 0 -2.3748 6.3061 2.3759 6.3069 0 0 0 0.66155 4.3641h-0.54216v-0.60308h-4.0734v-0.89995l-8.0112 0.0246c-0.37477-0.15323-0.75847-0.2997-1.1351-0.45231l-8.3657-11.121v-32.432c8.3232-1.2424 16.046-3.253 22.348-6.5347 1.0955-0.54462 0.95601-0.72616-0.08-1.4145-7.7813-5.5055-39.425-11.614-59.002-10.159l2e-3 -2e-3c-7.2157 0.9565-14.08 2.4324-14.866 10.541 0.28985 6.0524 4.6283 8.6145 9.7473 9.6265 3.7806-0.0123 7.7405-0.0369 11.748-0.0948 7.9301 8.7757 0.64228 19.087-5.7655 25.847v0.82646c-1.359-0.38092-2.7256-0.75385-4.0946-1.1254l2.2686-0.0123h-2.3193c-48.503-13.154-103.14-20.505-155.53-23.902l-110.51-0.76616c-12.267-8.4416-27.945-14.302-45.041-18.969-7.8611-1.6648-15.678-3.2948-23.539-4.7267v-7.353h-3.1376v-17.839h0.21231l-0.0123-0.9309 0.88524-0.0123v-2.9448h-2.151v-12.274h-0.81662v8.7919h-1.9877v3.8921h0.0369v3.4822h1.9289v17.839h-3.0036l-1.9158 3.4577h-1.9044v-32.919h-0.98486v-39.659h-0.89829zm-39.818 26.077v3.7353h2.3584v-3.7353h-2.3584zm49.451 16.769v1.9044h2.2082v-1.9044h-2.2082zm404.38 99.747a2.4619 7.6698 0 0 0 0.15385 0.22831h-0.23385a2.3759 6.3069 0 0 0 0.08 -0.22831zm2.0873 0.17477v0.0554h-0.0369a2.4619 7.6698 0 0 0 0.0369 -0.0554zm-1.9975 6.618h1.9975v0.67613a2.4619 7.6698 0 0 0 -0.9832 -0.64382 2.4619 7.6698 0 0 0 -0.87552 0.50277 2.3759 6.3069 0 0 0 -0.13846 -0.536z" color="#000000"/>
</svg>
