<?xml version="1.0" encoding="UTF-8"?>
<!DOCTYPE svg  PUBLIC '-//W3C//DTD SVG 1.1//EN'  'http://www.w3.org/Graphics/SVG/1.1/DTD/svg11.dtd'>
<svg enable-background="new 0 0 612 612" version="1.1" viewBox="0 0 612 612" xml:space="preserve" xmlns="http://www.w3.org/2000/svg">
	<path d="m21.474 377.52v-260.38c0-14.469 11.729-26.199 26.199-26.199h260.25c14.469 0 26.198 11.73 26.198 26.199v260.38c0 4.823-3.909 8.733-8.733 8.733h-295.18c-4.824 0-8.733-3.91-8.733-8.734zm210.16 89.202c0 30.01-24.329 54.338-54.338 54.338s-54.338-24.328-54.338-54.338c0-30.011 24.329-54.338 54.338-54.338s54.338 24.327 54.338 54.338zm-27.17 0c0-15.005-12.164-27.169-27.169-27.169s-27.17 12.164-27.17 27.169 12.165 27.17 27.17 27.17 27.169-12.165 27.169-27.17zm-73.969-54.339h-121.76c-4.823 0-8.733 3.91-8.733 8.733v26.495c0 4.823 3.91 8.733 8.733 8.733h97.598c2.548-17.484 11.373-32.928 24.164-43.961zm385.44 54.339c0 30.01-24.329 54.338-54.338 54.338-30.01 0-54.338-24.328-54.338-54.338 0-30.011 24.328-54.338 54.338-54.338 30.009-1e-3 54.338 24.327 54.338 54.338zm-27.168 0c0-15.005-12.165-27.169-27.17-27.169-15.006 0-27.169 12.164-27.169 27.169s12.164 27.17 27.169 27.17 27.17-12.165 27.17-27.17zm123.23-45.606v26.495c0 4.823-3.91 8.733-8.733 8.733h-70.704c-5.057-34.683-34.906-61.427-70.961-61.427-36.062 0-65.912 26.745-70.969 61.427h-142.37c-2.549-17.483-11.373-32.928-24.164-43.961h134.99v-249.79c0-9.646 7.82-17.466 17.466-17.466h82.445c23.214 0 44.911 11.531 57.9 30.77l53.15 78.721c7.796 11.547 11.962 25.161 11.962 39.094v118.67h21.253c4.823 0 8.733 3.91 8.733 8.733zm-88.592-164.48l-42.501-60.393c-1.636-2.324-4.3-3.707-7.142-3.707h-66.295c-4.822 0-8.733 3.91-8.733 8.733v60.393c0 4.824 3.91 8.733 8.733 8.733h108.8c7.074 0 11.212-7.973 7.14-13.759z"/>
</svg>
