<svg xmlns="http://www.w3.org/2000/svg" width="24.541" height="19.97" viewBox="0 0 24.541 19.97">
  <g id="Icon_ionic-logo-twitter" data-name="Icon ionic-logo-twitter" transform="translate(0)">
    <path id="Icon_ionic-logo-twitter-2" data-name="Icon ionic-logo-twitter" d="M25.954,6.866a10.179,10.179,0,0,1-2.891.8,5.053,5.053,0,0,0,2.215-2.787A10,10,0,0,1,22.08,6.1a5.033,5.033,0,0,0-8.711,3.443,4.929,4.929,0,0,0,.13,1.149A14.269,14.269,0,0,1,3.119,5.42,5.045,5.045,0,0,0,4.684,12.15,4.918,4.918,0,0,1,2.4,11.521v.062a5.039,5.039,0,0,0,4.041,4.94,5.068,5.068,0,0,1-1.326.177,4.75,4.75,0,0,1-.946-.094,5.043,5.043,0,0,0,4.706,3.5,10.1,10.1,0,0,1-6.256,2.158,10.205,10.205,0,0,1-1.2-.073A14.073,14.073,0,0,0,9.12,24.47,14.24,14.24,0,0,0,23.458,10.127c0-.218-.005-.437-.016-.65A10.249,10.249,0,0,0,25.954,6.866Z" transform="translate(-1.413 -4.5)" fill="#73c4b7"/>
  </g>
</svg>
