<?xml version="1.0" encoding="UTF-8"?>
<svg viewBox="0 0 251.6286 78.272728" xmlns="http://www.w3.org/2000/svg">
 <g transform="translate(-217.98 -379.44)" fill-rule="evenodd">
  <path transform="translate(217.98 379.44)" d="m32.312 0.5c-1.8182 0-6.054 1.2036-8.7812 2.7188s-7.875 5.4688-7.875 5.4688-12.132 13.013-13.344 15.438-1.8125 7.5938-1.8125 7.5938 26.369-7.5748 28.188-6.9688 3.0312 4.8438 3.0312 4.8438l12.406 48.188s5.7784-1.2064 6.6875-1.8125 5.1562-6.375 5.1562-6.375 11.51-7.8693 14.844-9.6875 11.498-5.1534 15.438-6.0625 7.2812-0.90625 7.2812-0.90625l146.38 3.625s11.794-4.25 11.188-14.25c-0.91677-15.127-13.313-16.344-13.312-16.344l-119.09 1.1875c0.60606-0.30303-22.42 0.3125-24.844 0.3125s-19.998-5.7689-23.938-6.375-23.663-13.634-24.875-13.938-10.901-6.6562-12.719-6.6562zm203.78 31.5c5.4364 0 9.875 4.4386 9.875 9.875s-4.4386 9.8438-9.875 9.8438-9.8438-4.4074-9.8438-9.8438 4.4074-9.875 9.8438-9.875z" stroke="#2b2b2b"/>
  <path d="m260.15 449.94s-15.455-2.7273-21.212-5.4546c-3.2988-1.5626-8.7525-4.5631-11.903-7.0996-2.3482-1.8905-2.9454-3.658-2.9454-3.658l29.697-8.3333 6.3636 24.545z" stroke="#212121" stroke-width=".3"/>
 </g>
</svg>
